<svg xmlns="http://www.w3.org/2000/svg" xmlns:xlink="http://www.w3.org/1999/xlink" viewBox="0 0 1920 1080">
   <!-- Image source: <a href="https://www.template.net/editable/115649/blue-white-abstract-background">Blue White Abstract Background</a> -->
  <defs>
    <style>
      .cls-1, .cls-5 {
        fill: none;
      }

      .cls-2 {
        clip-path: url(#clip-path);
      }

      .cls-3 {
        fill: #e9fbff;
      }

      .cls-4 {
        fill: #9dd4f9;
      }

      .cls-5 {
        stroke: #f8fdff;
        stroke-miterlimit: 10;
        stroke-width: 4px;
      }

      .cls-6 {
        fill: #9ae6f7;
      }

      .cls-7 {
        fill: #c0ebfb;
      }

      .cls-8 {
        fill: #c1f7f5;
      }
    </style>
    <clipPath id="clip-path">
      <rect class="cls-1" width="1920" height="1080"/>
    </clipPath>
  </defs>
  <g id="Layer_2" data-name="Layer 2">
    <g id="Layer_1-2" data-name="Layer 1">
      <g class="cls-2">
        <rect class="cls-3" width="1920" height="1080"/>
        <g>
          <path class="cls-4" d="M580.8966,403.3259C358.375,470.2533,242.6142,642.621,131.9886,807.343,31.9388,956.3175-74.5,1114.8056-34.7488,1307.5546c6.2529,30.3188,43.795,212.3532,173.15,262.9318,206.9768,80.9291,491.306-236.36,699.0141-468.1468,220.7923-246.3876,389.67-434.8415,327.0613-577.1673C1097.2266,372.2936,792.3971,339.7133,580.8966,403.3259Z"/>
          <path class="cls-5" d="M559.1527,470.84C358.0286,531.332,253.3992,687.125,153.4112,836.0075,62.9821,970.6568-33.222,1113.9049,2.7071,1288.1194c5.6517,27.4033,39.5837,191.9335,156.5,237.6485,187.0742,73.1471,444.0626-213.6323,631.7977-423.13C990.5662,879.9423,1143.2043,709.61,1086.6165,580.97,1025.833,442.792,750.3156,413.3446,559.1527,470.84Z"/>
          <path class="cls-5" d="M578.5691,500.8853c-184.7446,55.5652-280.8531,198.6705-372.698,335.428C122.8066,959.9968,34.4373,1091.5788,67.44,1251.6052c5.1913,25.1717,36.36,176.3025,143.7548,218.2945,171.8389,67.19,407.8981-196.2342,580.3442-388.6706C974.8483,876.67,1115.0556,720.21,1063.0762,602.0461,1007.2429,475.1212,754.1637,448.072,578.5691,500.8853Z"/>
          <path class="cls-5" d="M554.7707,528.049C391.6173,577.12,306.7411,703.5008,225.63,824.2754c-73.3568,109.2285-151.3983,225.4324-122.2523,366.7565,4.5846,22.23,32.1106,155.6979,126.9541,192.7823,151.756,59.3375,360.2269-173.3,512.519-343.2465,161.8856-180.6521,285.7067-318.8269,239.8023-423.1806C933.3452,505.296,709.8435,481.4081,554.7707,528.049Z"/>
        </g>
        <g>
          <path class="cls-6" d="M1112.8088,343.0584c172.5868-28.38,235.5574,99.7691,443.5968,76.7765,193.4771-21.3831,241.4719-143.5438,349.7591-110.8994,130.6959,39.4,205.621,261.0135,187.6756,435.0663-28.9413,280.703-309.6685,536.9766-614.211,554.4963C1096.0577,1320.5641,712.3306,961.72,763.05,675.756,790.5948,520.4495,949.2411,369.9556,1112.8088,343.0584Z"/>
          <path class="cls-5" d="M1135.4616,376.0554c160.1631-26.3372,218.6009,92.5873,411.6645,71.25,179.55-19.8439,224.09-133.2108,324.5818-102.9163,121.2878,36.5634,190.8194,242.2245,174.1658,403.7481-26.858,260.4966-287.3771,498.3224-569.9971,514.5809-355.96,20.4776-712.0648-312.5347-664.9968-577.9141C836.4421,540.6771,983.6683,401.0164,1135.4616,376.0554Z"/>
          <path class="cls-5" d="M1165.247,419.4421c143.8277-23.6511,196.3052,83.1441,369.6778,63.9828,161.237-17.82,201.2342-119.6243,291.477-92.42C1935.3191,423.84,1997.759,608.5247,1982.804,753.5742c-24.1187,233.9279-258.0668,447.4973-511.8618,462.0975-319.655,18.3891-639.44-280.6585-597.1722-518.9712C896.7252,567.2736,1028.9354,441.8572,1165.247,419.4421Z"/>
          <path class="cls-5" d="M1162.8891,489.3445c123.2767-20.2717,168.2559,71.2639,316.8559,54.84,138.1985-15.2737,172.4806-102.5316,249.8289-79.2141,93.3546,28.1427,146.8726,186.4389,134.0545,310.7628-20.6724,200.5028-221.1926,383.556-438.7237,396.07C1150.924,1187.5653,876.8323,931.2475,913.06,726.9865,932.7354,616.0529,1046.0546,508.5568,1162.8891,489.3445Z"/>
        </g>
        <g>
          <path class="cls-7" d="M1914.7939-13.2784c-86.3981-31.7321-215.448,2.11-288.45,3.0746C1520.2708-12.6592,1511.7809-65.228,1454.5021-53.17,1261.2812,8.4556,1224.4,606.4305,1313.33,674.0848c115.3529,125.1867,438.8631,78.2026,592.2583-110.464C2065.1232,367.4026,2023.3133,39.2592,1914.7939-13.2784Z"/>
          <path class="cls-5" d="M1890.9271,17.71c-78.9141-28.9834-196.7855,1.9269-263.4636,2.8083-96.8851-2.2427-104.64-50.258-156.9568-39.2447-176.4837,56.2878-210.17,602.4649-128.9435,664.2588,105.3608,114.3428,400.8479,71.4286,540.9557-100.8954C2028.2346,365.4157,1990.0464,65.6967,1890.9271,17.71Z"/>
          <path class="cls-5" d="M1846.8128,67.46c-70.8455-26.02-176.665,1.73-236.5255,2.5211-86.979-2.0134-93.9406-45.1193-140.9086-35.2321-158.4389,50.5326-188.6813,540.8653-115.76,596.341,94.5881,102.6518,359.8628,64.1253,485.6451-90.5792C1970.0812,379.6139,1935.7975,110.54,1846.8128,67.46Z"/>
          <path class="cls-5" d="M1829.8538,116.8231c-60.4037-22.185-150.6266,1.4749-201.6644,2.15-74.1593-1.7166-80.0949-38.4692-120.14-30.0393-135.0869,43.0847-160.872,461.1481-98.698,508.4474,80.6469,87.522,306.8233,54.6739,414.0667-77.229C1934.9539,382.9693,1905.7232,153.5538,1829.8538,116.8231Z"/>
        </g>
        <g>
          <path class="cls-7" d="M10.6244-4.0561c74.0883-52.1861,198.0941-68.4807,271.7528-15.31C394.039,61.2374,297.551,234.7419,416.34,374.8669c98.6868,116.4122,212.295,52.12,332.9929,168.41C903.9827,692.28,905.536,979.03,833.5379,1014.06,756.8,1051.3961,642.0186,780.64,423.9948,784.41,259.2769,787.2582,211.33,943.7645,110.14,922.2-93.5594,878.79-239.444,172.0864,10.6244-4.0561Z"/>
          <path class="cls-5" d="M35.4973,109.6911c68.3475-42.62,182.7446-55.9276,250.6958-12.5036,103.01,65.8281,13.9979,207.5275,123.5823,321.9661,91.04,95.0727,195.8451,42.5655,307.1905,137.5389,142.6667,121.6892,144.1,355.8751,77.68,384.4838-70.7914,30.4919-176.6792-190.6321-377.8091-187.553C264.8827,755.95,220.6508,883.7666,127.3014,866.1551-60.6136,830.7025-195.1941,253.5448,35.4973,109.6911Z"/>
          <path class="cls-5" d="M43.6835,194.33c63.6438-35.3751,170.1682-46.4207,233.443-10.3781,95.92,54.6383,13.0346,172.251,115.0774,267.2369,84.7747,78.9118,182.3672,35.33,286.05,114.1594C811.1021,666.352,812.4365,860.73,750.5882,884.4757c-65.92,25.3087-164.52-158.2277-351.8084-155.672-141.4971,1.9308-182.6851,108.021-269.61,93.4031C-45.8131,792.7806-171.1319,313.7308,43.6835,194.33Z"/>
          <path class="cls-5" d="M62.46,294.513c56.9922-26.6061,152.3834-34.9136,209.0451-7.8055C357.401,327.8017,283.1779,416.26,374.5559,487.7,450.4705,547.05,537.8633,514.2719,630.71,573.5605c118.964,75.9663,120.1588,222.16,64.7745,240.02-59.03,19.035-147.3257-119.005-315.04-117.0829-126.7088,1.4522-163.5921,81.244-241.4324,70.25C-17.6827,744.6154-129.904,384.3159,62.46,294.513Z"/>
        </g>
        <g>
          <path class="cls-8" d="M503.3516-20.2974c-5.9854,82.32,141.2018,121.1023,161.368,287.2349,12.2219,100.6851-32.8376,160.6046,0,187.1867,42.9182,34.7425,125.5714-63.0125,313.0537-93.5934,106.2487-17.33,117.0364,7.9754,196.8689-16.1367,25.8415-7.805,179.1781-54.1179,235.5972-193.6415C1596.06-467.3363,571.3705-301.9628,503.3516-20.2974Z"/>
          <path class="cls-5" d="M543.407-10.387c-5.4693,75.2227,129.0281,110.6616,147.4557,262.471,11.1682,92.0047-30.0065,146.7582,0,171.0486,39.218,31.7471,114.7453-57.58,286.0639-85.5243,97.0885-15.8364,106.9461,7.2878,179.8959-14.7456,23.6136-7.132,163.73-49.4521,215.2852-176.9467C1541.9078-418.8845,605.5616-267.7687,543.407-10.387Z"/>
          <path class="cls-5" d="M600.5767,3.7579c-4.7329,65.0931,111.653,95.76,127.5991,227.1264,9.6643,79.6152-25.9658,126.9956,0,148.015,33.9369,27.472,99.2936-49.8262,247.5423-74.0075,84.0144-13.7039,92.5446,6.3064,155.6709-12.76,20.4338-6.1717,141.6823-42.7929,186.2948-153.119C1464.6184-349.731,654.3615-218.9646,600.5767,3.7579Z"/>
          <path class="cls-5" d="M678.164,22.9544C674.4307,74.3,766.2367,98.49,778.8151,202.1132c7.6232,62.801-20.482,100.1749,0,116.7552,26.77,21.67,78.3234-39.3033,195.2629-58.3776,66.2711-10.81,73,4.9745,122.7942-10.0651,16.1183-4.8683,111.76-33.7553,146.95-120.7812C1359.7257-255.88,720.59-152.73,678.164,22.9544Z"/>
        </g>
        <g>
          <circle class="cls-4" cx="489.8511" cy="144.4043" r="6.6383"/>
          <circle class="cls-4" cx="592.4894" cy="211.8085" r="6.6383"/>
          <circle class="cls-4" cx="596.3191" cy="327.4681" r="6.6383"/>
          <circle class="cls-4" cx="448.4894" cy="365" r="6.6383"/>
          <circle class="cls-4" cx="394.1064" cy="270.0213" r="6.6383"/>
          <circle class="cls-4" cx="386.4468" cy="101.5106" r="6.6383"/>
        </g>
        <g>
          <circle class="cls-4" cx="297.1532" cy="648.6779" r="6.6383"/>
          <circle class="cls-4" cx="174.7487" cy="658.4295" r="6.6383"/>
          <circle class="cls-4" cx="100.7586" cy="569.4505" r="6.6383"/>
          <circle class="cls-4" cx="194.4615" cy="449.1091" r="6.6383"/>
          <circle class="cls-4" cx="295.681" cy="490.7396" r="6.6383"/>
          <circle class="cls-4" cx="405.1234" cy="619.1018" r="6.6383"/>
        </g>
        <g>
          <circle class="cls-4" cx="1673.3312" cy="529.2062" r="6.6383"/>
          <circle class="cls-4" cx="1572.1535" cy="598.7838" r="6.6383"/>
          <circle class="cls-4" cx="1463.6144" cy="558.6457" r="6.6383"/>
          <circle class="cls-4" cx="1484.6972" cy="407.5901" r="6.6383"/>
          <circle class="cls-4" cx="1593.181" cy="393.1083" r="6.6383"/>
          <circle class="cls-4" cx="1752.103" cy="449.6619" r="6.6383"/>
        </g>
      </g>
    </g>
  </g>
</svg>
